<?xml version="1.0" encoding="utf-8"?>
<!-- Generator: Adobe Illustrator 27.9.0, SVG Export Plug-In . SVG Version: 6.00 Build 0)  -->
<svg version="1.1" xmlns="http://www.w3.org/2000/svg" xmlns:xlink="http://www.w3.org/1999/xlink" x="0px" y="0px"
	 viewBox="0 0 1268.28 849.5" style="enable-background:new 0 0 1268.28 849.5;" xml:space="preserve">
<style type="text/css">
	.st0{display:none;}
	.st1{display:inline;}
	.st2{fill:#691C32;}
	.st3{fill:#FFFFFF;}
	.st4{display:none;fill:#FFFFFF;}
</style>
<g id="safearea" class="st0">
	<g class="st1">
		<path class="st2" d="M223.5,438.16c-10.92-7.8-19.77-11.44-39.01-15.09c19.25-8.33,27.05-13.53,35.37-22.89
			c11.96-14.04,18.73-33.81,18.73-55.14c0-56.18-40.57-91.55-105.08-91.55h-19.73c64.51,0,105.08,35.37,105.08,91.55
			c0,21.33-6.77,41.1-18.73,55.14c-8.33,9.36-16.12,14.56-35.37,22.89c19.25,3.64,28.09,7.28,39.01,15.09
			c19.77,15.09,30.69,39.01,30.69,68.14c0,32.77-14.04,60.86-38.49,76.47c-21.32,13.52-43.69,17.68-90.51,17.68h19.73
			c46.82,0,69.19-4.16,90.51-17.68c24.45-15.61,38.49-43.7,38.49-76.47C254.19,477.18,243.26,453.25,223.5,438.16z"/>
		<path class="st2" d="M216.69,506.31c0-29.13-10.92-53.06-30.69-68.14c-10.92-7.8-19.77-11.44-39.01-15.09
			c19.25-8.33,27.05-13.53,35.37-22.89c11.96-14.04,18.73-33.81,18.73-55.14c0-56.18-40.57-91.55-105.08-91.55H80.97v0.08
			c61.77,1.69,100.38,36.67,100.38,91.47c0,21.33-6.76,41.1-18.73,55.14c-8.33,9.36-16.12,14.56-35.37,22.89
			c19.25,3.64,28.09,7.28,39.01,15.09c19.77,15.09,30.69,39.01,30.69,68.14c0,32.77-14.04,60.86-38.49,76.47
			c-21.32,13.52-43.69,17.68-90.51,17.68h19.73c46.82,0,69.19-4.16,90.51-17.68C202.65,567.17,216.69,539.08,216.69,506.31z"/>
		<path class="st2" d="M80.97,253.58v-0.08h-4.7C77.86,253.5,79.42,253.54,80.97,253.58z"/>
		<path class="st2" d="M80.97,600.17V253.58c-1.56-0.04-3.11-0.08-4.7-0.08H65.19v346.67H80.97z"/>
		<polygon class="st2" points="42.47,253.5 33.61,253.5 33.61,600.17 42.47,600.17 49.4,600.17 49.4,253.5 		"/>
		<polygon class="st2" points="4.98,253.5 2.04,253.5 2.04,600.17 4.98,600.17 17.82,600.17 17.82,253.5 		"/>
	</g>
	<g class="st1">
		<path class="st2" d="M1237.83,438.16c-10.92-7.8-19.77-11.44-39.01-15.09c19.25-8.33,27.05-13.53,35.37-22.89
			c11.96-14.04,18.73-33.81,18.73-55.14c0-56.18-40.57-91.55-105.08-91.55h-19.73c64.51,0,105.08,35.37,105.08,91.55
			c0,21.33-6.77,41.1-18.73,55.14c-8.33,9.36-16.12,14.56-35.37,22.89c19.25,3.64,28.09,7.28,39.01,15.09
			c19.77,15.09,30.69,39.01,30.69,68.14c0,32.77-14.04,60.86-38.49,76.47c-21.32,13.52-43.69,17.68-90.51,17.68h19.73
			c46.82,0,69.19-4.16,90.51-17.68c24.45-15.61,38.49-43.7,38.49-76.47C1268.51,477.18,1257.59,453.25,1237.83,438.16z"/>
		<path class="st2" d="M1231.02,506.31c0-29.13-10.92-53.06-30.69-68.14c-10.92-7.8-19.77-11.44-39.01-15.09
			c19.25-8.33,27.05-13.53,35.37-22.89c11.96-14.04,18.73-33.81,18.73-55.14c0-56.18-40.57-91.55-105.08-91.55h-15.04v0.08
			c61.77,1.69,100.38,36.67,100.38,91.47c0,21.33-6.76,41.1-18.73,55.14c-8.33,9.36-16.12,14.56-35.37,22.89
			c19.25,3.64,28.09,7.28,39.01,15.09c19.77,15.09,30.69,39.01,30.69,68.14c0,32.77-14.04,60.86-38.49,76.47
			c-21.32,13.52-43.69,17.68-90.51,17.68h19.73c46.82,0,69.19-4.16,90.51-17.68C1216.98,567.17,1231.02,539.08,1231.02,506.31z"/>
		<path class="st2" d="M1095.3,253.58v-0.08h-4.7C1092.19,253.5,1093.75,253.54,1095.3,253.58z"/>
		<path class="st2" d="M1095.3,600.17V253.58c-1.56-0.04-3.11-0.08-4.7-0.08h-11.09v346.67H1095.3z"/>
		<polygon class="st2" points="1056.8,253.5 1047.94,253.5 1047.94,600.17 1056.8,600.17 1063.73,600.17 1063.73,253.5 		"/>
		<polygon class="st2" points="1019.31,253.5 1016.37,253.5 1016.37,600.17 1019.31,600.17 1032.15,600.17 1032.15,253.5 		"/>
	</g>
	<g class="st1">
		<path class="st2" d="M583.19,31.86c-7.8,10.92-11.44,19.77-15.09,39.01c-8.33-19.25-13.53-27.05-22.89-35.37
			c-14.04-11.96-33.81-18.73-55.14-18.73c-56.18,0-91.55,40.57-91.55,105.08v19.73c0-64.51,35.37-105.08,91.55-105.08
			c21.33,0,41.1,6.77,55.14,18.73c9.36,8.33,14.56,16.12,22.89,35.37c3.64-19.25,7.28-28.09,15.09-39.01
			c15.09-19.77,39.01-30.69,68.14-30.69c32.77,0,60.86,14.04,76.47,38.49c13.52,21.32,17.68,43.69,17.68,90.51v-19.73
			c0-46.82-4.16-69.19-17.68-90.51c-15.61-24.45-43.7-38.49-76.47-38.49C622.21,1.17,598.28,12.09,583.19,31.86z"/>
		<path class="st2" d="M651.34,38.66c-29.13,0-53.06,10.92-68.14,30.69c-7.8,10.92-11.44,19.77-15.09,39.01
			c-8.33-19.25-13.53-27.05-22.89-35.37c-14.04-11.96-33.81-18.73-55.14-18.73c-56.18,0-91.55,40.57-91.55,105.08v15.04h0.08
			C400.3,112.62,435.28,74,490.08,74c21.33,0,41.1,6.76,55.14,18.73c9.36,8.33,14.56,16.12,22.89,35.37
			c3.64-19.25,7.28-28.09,15.09-39.01c15.09-19.77,39.01-30.69,68.14-30.69c32.77,0,60.86,14.04,76.47,38.49
			c13.52,21.32,17.68,43.69,17.68,90.51v-19.73c0-46.82-4.16-69.19-17.68-90.51C712.2,52.71,684.11,38.66,651.34,38.66z"/>
		<path class="st2" d="M398.61,174.38h-0.08v4.7C398.53,177.5,398.57,175.94,398.61,174.38z"/>
		<path class="st2" d="M745.2,174.38H398.61c-0.04,1.56-0.08,3.11-0.08,4.7v11.09H745.2V174.38z"/>
		<polygon class="st2" points="398.53,212.88 398.53,221.74 745.2,221.74 745.2,212.88 745.2,205.96 398.53,205.96 		"/>
		<polygon class="st2" points="398.53,250.38 398.53,253.32 745.2,253.32 745.2,250.38 745.2,237.53 398.53,237.53 		"/>
	</g>
	<g class="st1">
		<path class="st2" d="M583.19,630.65c-7.8,10.92-11.44,19.77-15.09,39.01c-8.33-19.25-13.53-27.05-22.89-35.37
			c-14.04-11.96-33.81-18.73-55.14-18.73c-56.18,0-91.55,40.57-91.55,105.08v19.73c0-64.51,35.37-105.08,91.55-105.08
			c21.33,0,41.1,6.77,55.14,18.73c9.36,8.33,14.56,16.12,22.89,35.37c3.64-19.25,7.28-28.09,15.09-39.01
			c15.09-19.77,39.01-30.69,68.14-30.69c32.77,0,60.86,14.04,76.47,38.49c13.52,21.32,17.68,43.69,17.68,90.51v-19.73
			c0-46.82-4.16-69.19-17.68-90.51c-15.61-24.45-43.7-38.49-76.47-38.49C622.21,599.96,598.28,610.89,583.19,630.65z"/>
		<path class="st2" d="M651.34,637.46c-29.13,0-53.06,10.92-68.14,30.69c-7.8,10.92-11.44,19.77-15.09,39.01
			c-8.33-19.25-13.53-27.05-22.89-35.37c-14.04-11.96-33.81-18.73-55.14-18.73c-56.18,0-91.55,40.57-91.55,105.08v15.04h0.08
			c1.69-61.77,36.67-100.38,91.47-100.38c21.33,0,41.1,6.76,55.14,18.73c9.36,8.33,14.56,16.12,22.89,35.37
			c3.64-19.25,7.28-28.09,15.09-39.01c15.09-19.77,39.01-30.69,68.14-30.69c32.77,0,60.86,14.04,76.47,38.49
			c13.52,21.32,17.68,43.69,17.68,90.51v-19.73c0-46.82-4.16-69.19-17.68-90.51C712.2,651.5,684.11,637.46,651.34,637.46z"/>
		<path class="st2" d="M398.61,773.18h-0.08v4.7C398.53,776.29,398.57,774.73,398.61,773.18z"/>
		<path class="st2" d="M745.2,773.18H398.61c-0.04,1.56-0.08,3.11-0.08,4.7v11.09H745.2V773.18z"/>
		<polygon class="st2" points="398.53,811.68 398.53,820.54 745.2,820.54 745.2,811.68 745.2,804.75 398.53,804.75 		"/>
		<polygon class="st2" points="398.53,849.17 398.53,852.11 745.2,852.11 745.2,849.17 745.2,836.32 398.53,836.32 		"/>
	</g>
</g>
<g id="Layer_3" class="st0">
	<rect x="-1.6" y="-0.9" class="st1" width="1269.42" height="850.23"/>
</g>
<g id="Layer_1">
	<g>
		<g>
			<g>
				<path class="st3" d="M475.84,438.16c-10.92-7.8-19.77-11.44-39.01-15.09c19.25-8.33,27.05-13.53,35.37-22.89
					c11.96-14.04,18.73-33.81,18.73-55.14c0-56.18-40.57-91.55-105.08-91.55h-19.73c64.51,0,105.08,35.37,105.08,91.55
					c0,21.33-6.77,41.1-18.73,55.14c-8.33,9.36-16.12,14.56-35.37,22.89c19.25,3.64,28.09,7.28,39.01,15.09
					c19.77,15.09,30.69,39.01,30.69,68.14c0,32.77-14.04,60.86-38.49,76.47c-21.32,13.52-43.69,17.68-90.51,17.68h19.73
					c46.82,0,69.19-4.16,90.51-17.68c24.45-15.61,38.49-43.7,38.49-76.47C506.53,477.18,495.61,453.25,475.84,438.16z"/>
				<path class="st3" d="M469.04,506.31c0-29.13-10.92-53.06-30.69-68.14c-10.92-7.8-19.77-11.44-39.01-15.09
					c19.25-8.33,27.05-13.53,35.37-22.89c11.96-14.04,18.73-33.81,18.73-55.14c0-56.18-40.57-91.55-105.08-91.55h-15.04v0.08
					c61.77,1.69,100.38,36.67,100.38,91.47c0,21.33-6.76,41.1-18.73,55.14c-8.33,9.36-16.12,14.56-35.37,22.89
					c19.25,3.64,28.09,7.28,39.01,15.09c19.77,15.09,30.69,39.01,30.69,68.14c0,32.77-14.04,60.86-38.49,76.47
					c-21.32,13.52-43.69,17.68-90.51,17.68h19.73c46.82,0,69.19-4.16,90.51-17.68C454.99,567.17,469.04,539.08,469.04,506.31z"/>
				<path class="st3" d="M333.32,253.58v-0.08h-4.7C330.2,253.5,331.76,253.54,333.32,253.58z"/>
				<path class="st3" d="M333.32,600.17V253.58c-1.56-0.04-3.11-0.08-4.7-0.08h-11.09v346.67H333.32z"/>
				<polygon class="st3" points="294.82,253.5 285.96,253.5 285.96,600.17 294.82,600.17 301.74,600.17 301.74,253.5 				"/>
				<polygon class="st3" points="257.32,253.5 254.38,253.5 254.38,600.17 257.32,600.17 270.17,600.17 270.17,253.5 				"/>
			</g>
			<g>
				<g>
					<path class="st3" d="M591.93,593.12c-10.87,0-17.16-7.12-17.16-20.14c0-12.14,6.45-19.69,17.21-19.69
						c7.28,0,13.68,3.59,15.28,13.29c0,0.28-0.17,0.5-0.44,0.5h-1.88c-0.28,0-0.55-0.22-0.55-0.5c-1.27-7.78-6.34-10.87-12.47-10.87
						c-9.05,0-14.23,6.84-14.23,17.32c0,11.92,5.46,17.65,14.23,17.65c7.01,0,12.14-4.03,12.74-11.7c0.05-0.28,0.28-0.5,0.55-0.5
						h1.88c0.28,0,0.5,0.22,0.44,0.5C606.6,588.21,600.59,593.12,591.93,593.12z"/>
					<path class="st3" d="M641.13,593.12c-10.65,0-17.71-7.67-17.71-19.92c0-12.36,7.06-19.92,17.71-19.92
						c10.7,0,17.71,7.5,17.71,19.92C658.84,585.51,651.72,593.12,641.13,593.12z M641.13,590.69c9.05,0,14.78-6.51,14.78-17.49
						c0-10.92-5.74-17.49-14.78-17.49c-9.1,0-14.78,6.56-14.78,17.49C626.35,584.13,632.08,590.69,641.13,590.69z"/>
					<path class="st3" d="M678.97,573.54l0.05,18.48c0,0.28-0.22,0.5-0.5,0.5h-1.82c-0.28,0-0.5-0.22-0.5-0.5l0.11-19.36
						l-0.06-18.26c0-0.28,0.22-0.5,0.5-0.5h2.04c0.28,0,0.61,0.17,0.77,0.39l23.5,34.31l-0.06-4.63V572.1l-0.11-17.71
						c0-0.28,0.22-0.5,0.5-0.5h1.88c0.28,0,0.5,0.22,0.5,0.5l-0.17,18.26l0.11,19.36c0,0.28-0.22,0.5-0.5,0.5h-2.26
						c-0.28,0-0.61-0.17-0.77-0.39l-23.28-33.76l0.06,4.63V573.54z"/>
					<path class="st3" d="M738,593.01c-9.6,0-14.51-5.02-14.95-13.46c0-0.28,0.22-0.5,0.5-0.5h1.93c0.28,0,0.5,0.22,0.5,0.5
						c0.5,6.95,3.81,11.09,12.14,11.09c6.23,0,11.2-2.54,11.2-8.88c0-12.3-25.43-3.75-25.43-17.87c0-6.95,5.57-10.54,13.13-10.54
						c8.77,0,13.74,3.92,14.29,11.59c0.05,0.28-0.17,0.5-0.44,0.5h-1.93c-0.28,0-0.5-0.22-0.55-0.5c-0.39-6.18-3.97-9.16-11.31-9.16
						c-6.29,0-10.54,2.48-10.54,7.89c0,11.36,25.49,2.92,25.49,17.87C752.01,589.26,745.83,593.01,738,593.01z"/>
					<path class="st3" d="M782.02,593.12c-9.05,0-13.41-5.79-13.41-15.39v-13.35l-0.05-9.99c0-0.28,0.22-0.5,0.5-0.5h1.99
						c0.28,0,0.5,0.22,0.5,0.5l-0.11,9.93v13.41c0,7.45,2.92,12.96,10.59,12.96s10.59-5.52,10.59-12.96v-13.35l-0.06-9.99
						c0-0.28,0.22-0.5,0.5-0.5h1.88c0.28,0,0.5,0.22,0.5,0.5l-0.11,9.99v13.35C795.31,587.33,791.01,593.12,782.02,593.12z"/>
					<path class="st3" d="M813.79,592.51c-0.28,0-0.5-0.22-0.5-0.5l0.17-20.47l-0.17-17.16c0-0.28,0.22-0.5,0.5-0.5h1.93
						c0.28,0,0.5,0.22,0.5,0.5l-0.11,17.16l0.11,18.59h18.09c0.28,0,0.5,0.22,0.5,0.5v1.38c0,0.28-0.22,0.5-0.5,0.5H813.79z"/>
					<path class="st3" d="M852.62,592.51c-0.28,0-0.5-0.22-0.5-0.5l0.17-18.48l-0.17-17.21h-10.76c-0.28,0-0.5-0.22-0.5-0.5v-1.43
						c0-0.28,0.22-0.5,0.5-0.5h24.44c0.28,0,0.5,0.22,0.5,0.5v1.43c0,0.28-0.22,0.5-0.5,0.5h-10.7l-0.17,17.21l0.17,18.48
						c0,0.28-0.22,0.5-0.5,0.5H852.62z"/>
					<path class="st3" d="M883.18,592.51c-0.28,0-0.5-0.22-0.5-0.5l0.17-19.47l-0.17-18.15c0-0.28,0.22-0.5,0.5-0.5h1.93
						c0.28,0,0.5,0.22,0.5,0.5l-0.17,18.15l0.17,19.47c0,0.28-0.22,0.5-0.5,0.5H883.18z"/>
					<path class="st3" d="M907.29,573.54l0.05,18.48c0,0.28-0.22,0.5-0.5,0.5h-1.82c-0.28,0-0.5-0.22-0.5-0.5l0.11-19.36
						l-0.06-18.26c0-0.28,0.22-0.5,0.5-0.5h2.04c0.28,0,0.61,0.17,0.77,0.39l23.5,34.31l-0.06-4.63V572.1l-0.11-17.71
						c0-0.28,0.22-0.5,0.5-0.5h1.88c0.28,0,0.5,0.22,0.5,0.5l-0.17,18.26l0.11,19.36c0,0.28-0.22,0.5-0.5,0.5h-2.26
						c-0.28,0-0.61-0.17-0.77-0.39l-23.28-33.76l0.06,4.63V573.54z"/>
					<path class="st3" d="M968.19,593.12c-9.71,0-16.72-7.67-16.72-19.97c0-12.3,7.06-19.86,16.66-19.86
						c7.94,0,13.52,4.19,15.17,12.25c0.06,0.28-0.11,0.5-0.39,0.5h-1.88c-0.28,0-0.55-0.22-0.61-0.5c-1.32-6.51-5.85-9.87-12.3-9.87
						c-7.94,0-13.74,6.45-13.74,17.54c0,10.87,5.85,17.54,13.85,17.54c8.77,0,13.18-6.12,13.18-15.28h-12.96
						c-0.28,0-0.5-0.22-0.5-0.5v-1.32c0-0.28,0.22-0.5,0.5-0.5h15.34c0.28,0,0.5,0.22,0.5,0.5
						C984.46,585.95,978.83,593.12,968.19,593.12z"/>
				</g>
				<g>
					<path class="st3" d="M572.7,377.46c-0.78,0-1.41-0.63-1.41-1.41l0.47-56.37l-0.47-50.42c0-0.78,0.63-1.41,1.41-1.41h37.58
						c21.77,0,36.49,9.55,36.49,25.84c0,14.09-7.2,21.61-21.3,24.74c17.38,4.23,24.43,13.78,24.74,27.09
						c0,22.86-17.7,31.95-40.09,31.95H572.7z M579.28,315.6h30.69c17.38,0,28.5-5.01,28.5-20.2c0-14.09-11.27-20.98-28.5-20.98
						h-30.38L579.28,315.6z M579.59,370.72h30.38c19.1,0,31.95-6.89,31.95-25.06c0-16.76-15.35-23.33-31.95-23.33h-30.69
						L579.59,370.72z"/>
					<path class="st3" d="M667.91,377.46c-0.78,0-1.41-0.63-1.41-1.41l0.31-40.24l-0.31-37.58c0-0.78,0.63-1.41,1.41-1.41h5.17
						c0.78,0,1.41,0.63,1.41,1.41l-0.47,15.19c5.32-11.43,15.35-17.54,26.31-17.54c1.88,0,3.76,0.16,5.32,0.47
						c0.78,0.31,1.41,1.1,1.41,1.72v4.07c0,0.63-0.63,1.25-1.41,1.1c-1.57-0.47-3.29-0.63-5.79-0.63c-11.27,0-22.24,7.2-25.68,24.12
						l0.31,49.33c0,0.78-0.63,1.41-1.41,1.41H667.91z"/>
					<path class="st3" d="M771.1,377.46c-0.78,0-1.41-0.63-1.41-1.41l0.31-15.03c-5.01,10.96-14.09,17.85-27.09,17.85
						c-20.98,0-32.26-18.16-32.26-41.65c0-23.18,11.43-41.97,32.26-41.97c12.53,0,21.92,5.95,27.09,17.23l-0.31-14.25
						c0-0.78,0.63-1.41,1.41-1.41h5.01c0.78,0,1.41,0.63,1.41,1.41l-0.31,37.43l0.31,40.4c0,0.78-0.63,1.41-1.41,1.41H771.1z
						 M744.48,372.76c15.5,0,25.68-11.74,25.84-34.76s-9.4-36.64-25.68-36.64c-18.16,0-26.15,15.5-26.15,35.08
						C718.49,356.63,726.47,372.76,744.48,372.76z"/>
					<path class="st3" d="M796.47,377.46c-0.78,0-1.41-0.63-1.41-1.41l0.47-33.98l-0.31-43.85c0-0.78,0.63-1.41,1.41-1.41h4.85
						c0.78,0,1.41,0.63,1.41,1.41l-0.31,15.19c4.54-9.08,13.62-18.48,27.56-18.48c16.13,0,26.15,10.49,26.15,32.57v15.35l0.31,33.2
						c0,0.78-0.63,1.41-1.41,1.41h-5.17c-0.78,0-1.41-0.63-1.41-1.41l0.16-33.2v-14.56c0-19.42-8.14-26.78-20.36-26.78
						c-12.06,0-20.2,9.08-25.53,23.8v17.54l0.16,33.2c0,0.78-0.63,1.41-1.41,1.41H796.47z"/>
					<path class="st3" d="M930.36,377.46c-0.78,0-1.41-0.63-1.41-1.41l0.31-14.88c-5.17,10.96-14.41,17.85-27.09,17.85
						c-20.98,0-32.26-18.32-32.26-41.81c0-23.18,11.43-42.12,32.26-42.12c12.37,0,21.61,5.95,26.78,16.91l-0.16-42.75
						c0-0.78,0.63-1.41,1.41-1.41h5.17c0.78,0,1.41,0.63,1.41,1.41l-0.31,42.59l0.31,64.2c0,0.78-0.63,1.41-1.41,1.41H930.36z
						 M903.74,372.92c15.19,0,25.68-11.74,25.84-34.92c0.16-23.02-9.4-36.96-25.68-36.96c-18.16,0-26.15,15.82-26.15,35.39
						C877.74,356.63,885.73,372.92,903.74,372.92z"/>
					<path class="st3" d="M984.07,379.02c-20.2,0-32.88-9.24-33.51-28.81c0-0.78,0.63-1.41,1.41-1.41h4.54
						c0.78,0,1.41,0.63,1.41,1.41c0.47,15.66,9.55,23.02,26.15,23.02c13.78,0,23.8-6.26,23.8-17.38c0-26.15-55.59-7.2-55.59-38.52
						c0-14.56,12.21-22.08,29.44-22.08c16.91,0,30.38,7.2,31.32,23.96c0,0.78-0.63,1.41-1.41,1.41h-4.54
						c-0.78,0-1.41-0.63-1.41-1.41c-0.94-12.84-11.12-18.17-23.96-18.17c-13.47,0-22.08,5.32-22.08,15.97
						c0,23.8,55.59,4.85,55.59,38.37C1015.23,370.25,1001.61,379.02,984.07,379.02z"/>
				</g>
				<path class="st3" d="M787.52,515.51c-21.46,0-33.35-15.51-33.35-38.85c0-23.34,11.89-39,33.35-39c21.6,0,33.35,15.66,33.35,39
					C820.87,499.85,809.12,515.51,787.52,515.51z M787.52,509.86c17.4,0,25.95-12.9,25.95-33.2c0-20.15-8.7-33.34-25.95-33.34
					c-17.11,0.15-25.81,13.05-25.81,33.34C761.72,496.95,770.41,509.86,787.52,509.86z"/>
				<path class="st3" d="M867.98,515.51c-21.46,0-33.35-15.51-33.35-38.85c0-23.34,11.89-39,33.35-39c21.6,0,33.35,15.66,33.35,39
					C901.33,499.85,889.58,515.51,867.98,515.51z M867.98,509.86c17.4,0,25.95-12.9,25.95-33.2c0-20.15-8.7-33.34-25.95-33.34
					c-17.11,0.15-25.81,13.05-25.81,33.34C842.17,496.95,850.87,509.86,867.98,509.86z"/>
				<path class="st3" d="M971.06,513.92c-0.72,0-1.31-0.58-1.31-1.3l0.29-13.77c-4.78,10.15-13.34,16.53-25.08,16.53
					c-19.43,0-29.87-16.96-29.87-38.71c0-21.46,10.58-39,29.87-39c11.45,0,20.01,5.51,24.79,15.66l-0.15-39.58
					c0-0.72,0.58-1.3,1.31-1.3h4.78c0.73,0,1.31,0.58,1.31,1.3l-0.29,39.43l0.29,59.44c0,0.72-0.58,1.3-1.31,1.3H971.06z
					 M946.41,509.71c14.06,0,23.78-10.87,23.92-32.33c0.14-21.31-8.7-34.21-23.78-34.21c-16.82,0-24.21,14.64-24.21,32.77
					C922.35,494.63,929.74,509.71,946.41,509.71z"/>
				<g>
					<g>
						<g>
							<g>
								<path class="st4" d="M702.13,509.3h-0.3c-0.57,0-1.09,0-1.65-0.04c-17.5-0.74-30.71-13.73-33.75-35.92
									c-0.48-3.22-0.7-6.6-0.7-10.16c0-3.56,0.26-6.99,0.7-10.16c3.13-21.72,16.33-35.01,33.75-35.92
									c0.65-0.04,1.3-0.04,1.96-0.04l-0.13-6.21c-4,0-7.82,0.48-11.47,1.43c-16.46,4.39-28.36,18.46-31.62,39.22
									c-0.04,0.26-0.04,0.48-0.09,0.69c-0.13,0.78-0.22,1.57-0.3,2.35c-0.09,0.96-0.17,1.91-0.26,2.87
									c-0.13,1.91-0.22,3.87-0.22,5.91c0,2.04,0.09,4,0.22,5.91c0.13,1.69,0.35,3.35,0.57,4.95c0,0.22,0.04,0.43,0.09,0.7
									c3.17,20.89,15.2,34.88,31.62,39.22c3.56,0.96,7.34,1.43,11.29,1.43H702 M701.83,509.3c-0.57,0-1.09,0-1.65-0.04
									c-17.42-0.91-30.62-14.2-33.75-35.92c-0.48-3.22-0.7-6.6-0.7-10.16c0-3.56,0.26-6.99,0.7-10.16
									c3.04-22.2,16.24-35.18,33.75-35.92c0.65-0.04,1.3-0.04,1.96-0.04c16.81,0.09,28.58,8.95,32.05,25.97
									c0.13,0.74,0.87,1.3,1.56,1.3h4.95c0.74,0,1.17-0.57,1-1.3c-4.34-21.15-18.89-32.14-39.7-32.18c-4,0-7.82,0.48-11.47,1.43
									c-16.42,4.34-28.45,18.33-31.62,39.22c-0.04,0.26-0.04,0.48-0.09,0.69c-0.13,0.78-0.22,1.57-0.3,2.35
									c-0.09,0.96-0.17,1.91-0.26,2.87c-0.13,1.91-0.22,3.87-0.22,5.91c0,2.04,0.09,4,0.22,5.91c0.13,1.69,0.35,3.35,0.57,4.95
									c0,0.22,0.04,0.43,0.09,0.7c3.26,20.76,15.16,34.83,31.62,39.22c3.56,0.96,7.34,1.43,11.29,1.43H702h1.56
									c13.9-0.04,26.75-6.85,32.52-18.55c1.88-3.81,4.18-3.34,5.66-7.9v-7.04h-4.43c-1.17,0-1.21-0.72-1.56,1.3
									c-0.04,0.13-0.04,0.22-0.09,0.35c-3.52,16.77-15.24,25.54-31.97,25.63H701.83z"/>
							</g>
						</g>
					</g>
					<g>
						<g>
							<g>
								<path class="st3" d="M702.13,509.3h-0.3c-0.57,0-1.09,0-1.65-0.04c-17.5-0.74-30.71-13.73-33.75-35.92
									c-0.48-3.22-0.7-6.6-0.7-10.16c0-3.56,0.26-6.99,0.7-10.16c3.13-21.72,16.33-35.01,33.75-35.92
									c0.65-0.04,1.3-0.04,1.96-0.04l-0.13-6.21c-4,0-7.82,0.48-11.47,1.43c-16.46,4.39-28.36,18.46-31.62,39.22
									c-0.04,0.26-0.04,0.48-0.09,0.69c-0.13,0.78-0.22,1.57-0.3,2.35c-0.09,0.96-0.17,1.91-0.26,2.87
									c-0.13,1.91-0.22,3.87-0.22,5.91c0,2.04,0.09,4,0.22,5.91c0.13,1.69,0.35,3.35,0.57,4.95c0,0.22,0.04,0.43,0.09,0.7
									c3.17,20.89,15.2,34.88,31.62,39.22c3.56,0.96,7.34,1.43,11.29,1.43H702 M703.69,509.3h-1.86c-0.57,0-1.09,0-1.65-0.04
									c-17.42-0.91-30.62-14.2-33.75-35.92c-0.48-3.22-0.7-6.6-0.7-10.16c0-3.56,0.26-6.99,0.7-10.16
									c3.04-22.2,16.24-35.18,33.75-35.92c0.65-0.04,1.3-0.04,1.96-0.04c16.81,0.09,28.58,8.95,32.05,25.97
									c0.13,0.74,0.87,1.3,1.56,1.3h4.95c0.74,0,1.17-0.57,1-1.3c-4.34-21.15-18.89-32.14-39.7-32.18c-4,0-7.82,0.48-11.47,1.43
									c-16.42,4.34-28.45,18.33-31.62,39.22c-0.04,0.26-0.04,0.48-0.09,0.69c-0.13,0.78-0.22,1.57-0.3,2.35
									c-0.09,0.96-0.17,1.91-0.26,2.87c-0.13,1.91-0.22,3.87-0.22,5.91c0,2.04,0.09,4,0.22,5.91c0.13,1.69,0.35,3.35,0.57,4.95
									c0,0.22,0.04,0.43,0.09,0.7c3.26,20.76,15.16,34.83,31.62,39.22c3.56,0.96,7.34,1.43,11.29,1.43H702h1.56"/>
							</g>
						</g>
					</g>
					<g>
						<g>
							<g>
								<path class="st3" d="M699.53,515.32c19.91,2.18,35.35-13.64,39.7-34.79c0.17-0.74-0.26-1.3-1-1.3h-4.95
									c-0.69,0-0.67,0.74-0.81,1.48c-3.47,17.03-13.99,28.93-32.81,28.4c-0.65-0.02-1.3,0-1.96-0.04"/>
							</g>
						</g>
					</g>
					<g>
						<g>
							<g>
								<path class="st3" d="M742.16,477.89v34.73c0,0.74-0.57,1.3-1.3,1.3h-3.47c-0.69,0-1.3-0.56-1.3-1.3v-29.95h-29.95
									c-0.69,0-1.3-0.56-1.3-1.3v-3.48c0-0.69,0.61-1.3,1.3-1.3h34.73C741.6,476.59,742.16,477.19,742.16,477.89z"/>
							</g>
						</g>
					</g>
				</g>
			</g>
		</g>
		<g>
			<g>
				<g>
					<path class="st3" d="M638.21,482.02c0,0.72-0.58,1.3-1.31,1.3h-9.28v29.29c0,0.72-0.58,1.3-1.3,1.3h-4.79
						c-0.72,0-1.3-0.58-1.3-1.3v-29.29h-46.97c-0.72,0-1.31-0.58-1.31-1.3v-3.91c0-0.72,0.29-1.74,0.73-2.32l42.77-62.34
						c0.44-0.58,1.31-1.01,2.03-1.01h8.84c0.72,0,1.3,0.58,1.3,1.3v63.07h9.28c0.73,0,1.31,0.58,1.31,1.3V482.02z M620.23,432.73
						l0.15-14.93l-40.74,59.01h40.59V432.73z"/>
				</g>
			</g>
		</g>
	</g>
</g>
</svg>
